<svg width="28" height="24" viewBox="0 0 28 24" fill="none" xmlns="http://www.w3.org/2000/svg">
<path d="M3.97897 12.8283V13.7092C4.24051 13.7092 4.50205 13.707 4.76359 13.7092C5.08978 13.7128 5.28667 13.8767 5.29035 14.1426C5.29402 14.4093 5.0964 14.5834 4.77535 14.5878C4.51895 14.5915 4.26255 14.5886 3.98778 14.5886C4.03848 14.8832 4.217 15.0228 4.47854 15.0242C6.04632 15.0316 7.61336 15.0316 9.18114 15.0242C9.47575 15.0228 9.68586 14.8097 9.68806 14.5144C9.69615 13.3867 9.69615 12.2589 9.68806 11.1312C9.68586 10.8484 9.47868 10.6485 9.19804 10.6331C8.93503 10.6192 8.66982 10.6302 8.37374 10.6302C8.37374 11.0387 8.37521 11.4302 8.37374 11.8211C8.37228 12.2398 8.22681 12.389 7.81687 12.3897C7.15714 12.3912 6.49667 12.3919 5.83694 12.3897C5.44463 12.3882 5.29623 12.2362 5.29402 11.835C5.29182 11.4427 5.29402 11.0511 5.29402 10.6331C4.99722 10.6331 4.72172 10.6081 4.45356 10.6434C4.31544 10.6618 4.17145 10.7654 4.06566 10.8675C3.84232 11.0827 3.61163 11.1312 3.4118 10.9689C3.21418 10.8072 3.19802 10.545 3.38021 10.3077C3.65351 9.95135 4.01864 9.75372 4.46605 9.75152C6.04265 9.74417 7.61998 9.73168 9.19584 9.76254C9.52276 9.76915 9.84602 9.94988 10.1928 10.0571C10.7254 8.61499 11.4887 7.28083 13.1932 6.76583C12.6451 6.29271 12.2601 5.74538 12.0544 5.07977C11.4432 3.10792 12.6495 1.04425 14.6823 0.584344C16.641 0.141339 18.5886 1.49166 18.8898 3.50391C18.9155 3.67509 18.9559 3.85729 18.9228 4.02112C18.8942 4.16511 18.8009 4.33629 18.6826 4.41196C18.5452 4.50012 18.5055 4.58387 18.5474 4.71538C18.6297 4.97471 18.6833 5.25609 18.8229 5.48237C19.1462 6.00545 19.116 6.38087 18.6774 6.79742C18.5599 6.90909 18.4615 7.0597 18.4042 7.21104C18.1786 7.80465 17.7621 8.14848 17.0311 8.24325C17.43 8.69874 17.7562 9.12852 18.1419 9.49439C18.4879 9.82205 18.964 9.80074 19.3989 9.72948C20.1225 9.6112 20.7455 9.73682 21.2554 10.34C21.3024 10.2445 21.3377 10.1673 21.3773 10.0917C21.7491 9.37978 22.339 8.97791 23.131 8.878C23.5887 8.81996 23.7753 8.99555 23.7753 9.46059C23.776 10.5428 23.7768 11.6242 23.7753 12.7063C23.7753 13.1332 23.5799 13.311 23.1552 13.2573C22.9488 13.2316 22.7468 13.1736 22.5139 13.1236C22.5367 13.1905 22.5513 13.2471 22.5741 13.3C23.0428 14.3939 23.5174 15.4849 23.9781 16.5825C24.0464 16.7455 24.1294 16.7918 24.2991 16.7962C26.304 16.8462 27.8255 18.5014 27.7337 20.5232C27.6463 22.44 25.933 23.9497 23.9847 23.8263C22.3339 23.7212 21.0467 22.523 20.725 20.7737H14.0674C13.897 21.7868 13.404 22.6148 12.5415 23.2025C11.9163 23.6279 11.2213 23.8145 10.4653 23.8028C9.09886 23.7815 7.44733 22.833 7.07559 20.7517C6.67299 20.7517 6.26305 20.7532 5.8531 20.7517C5.44389 20.7495 5.29255 20.5952 5.29769 20.1816C5.31239 18.9341 5.59156 17.7484 6.15946 16.6368C6.28362 16.3944 6.45847 16.1784 6.6223 15.9315C6.56646 15.9249 6.50255 15.9117 6.4379 15.9117C5.86045 15.9102 5.283 15.911 4.70555 15.911C3.75857 15.911 3.28765 15.5348 3.0768 14.59C2.50669 14.59 1.93072 14.5952 1.35474 14.5878C1.08732 14.5842 0.908059 14.4086 0.896305 14.1705C0.886019 13.9538 1.0381 13.7606 1.25996 13.7202C1.33123 13.707 1.40616 13.7114 1.47963 13.7114C1.9197 13.7114 2.35976 13.7114 2.79983 13.7114C2.88946 13.7114 2.97909 13.7114 3.0812 13.7114V12.8305C2.82113 12.8305 2.55959 12.8334 2.29805 12.8305C1.97406 12.8261 1.77717 12.6579 1.77717 12.3912C1.77717 12.123 1.97259 11.9541 2.29731 11.9526C2.97541 11.9496 3.65424 11.9496 4.33234 11.9526C4.6556 11.9541 4.85322 12.126 4.85249 12.3919C4.85249 12.6579 4.65413 12.8246 4.33087 12.8312C4.22288 12.8334 4.11415 12.8312 3.98117 12.8312L3.97897 12.8283ZM6.17342 19.8517H14.5214C14.121 19.3059 14.0681 18.7123 14.0909 18.0995C14.1027 17.7888 14.0968 17.4765 14.0924 17.165C14.0821 16.4539 13.5465 15.9139 12.8346 15.911C11.4608 15.9058 10.087 15.8992 8.7139 15.9139C7.99539 15.9213 7.4128 16.2394 7.0462 16.8594C6.50696 17.7726 6.24688 18.7776 6.17268 19.8517H6.17342ZM15.1231 11.1584C14.9534 10.9138 14.7903 10.6926 14.6419 10.4619C14.4458 10.1578 14.4832 9.89184 14.7293 9.74858C14.9674 9.60973 15.1937 9.69642 15.3803 10.0057C15.8402 10.7683 16.4793 11.3237 17.3007 11.6646C17.4998 11.7476 17.7106 11.802 17.8884 11.8607C18.003 11.3979 18.1096 10.9681 18.222 10.5148C17.5101 10.2878 17.0458 9.70156 16.6108 9.08003C16.4529 8.85523 16.2868 8.63556 16.1105 8.42544C15.7968 8.05223 15.4111 7.78482 14.9351 7.65331C13.692 7.30949 12.5562 7.7378 11.7775 8.85669C11.1853 9.70744 10.8812 10.6743 10.6879 11.6786C10.6167 12.0488 10.591 12.4279 10.541 12.8268C11.7819 12.8268 12.9537 12.829 14.1247 12.8202C14.1857 12.8202 14.2834 12.735 14.3018 12.6711C14.4627 12.1061 14.7411 11.6073 15.1231 11.1569V11.1584ZM19.9146 19.8708C20.2864 19.8708 20.7037 19.8635 21.121 19.8745C21.284 19.8789 21.3862 19.8289 21.4817 19.6923C22.0217 18.9194 22.5668 18.1502 23.1229 17.3891C23.2353 17.2356 23.2478 17.1166 23.1729 16.9446C22.5396 15.4856 21.9159 14.0221 21.2877 12.5602C21.2561 12.4874 21.2157 12.4184 21.2165 12.4206C20.4759 12.5895 19.7765 12.7497 19.0683 12.9113C19.0654 12.8974 19.0727 12.9414 19.083 12.9855C19.4613 14.6157 19.8456 16.2445 20.2136 17.8769C20.2687 18.1223 20.3033 18.3934 20.2585 18.6366C20.182 19.0509 20.0351 19.4521 19.9139 19.8723L19.9146 19.8708ZM14.9733 6.60641C14.9733 6.22144 14.9725 5.85558 14.9733 5.49045C14.9769 4.36127 15.7439 3.5906 16.8687 3.58619C17.2419 3.58472 17.6151 3.58619 17.9898 3.58619C17.9083 2.40191 16.6689 1.36676 15.3847 1.38587C14.0094 1.40644 12.828 2.55986 12.7751 3.93369C12.7252 5.24066 13.7353 6.48739 14.9733 6.60641ZM16.7335 18.1003C16.7335 17.3663 16.7335 16.6618 16.7335 15.958C16.7335 15.8573 16.7335 15.756 16.7254 15.656C16.6498 14.7495 16.1517 14.1074 15.2892 13.8443C15.0298 13.7657 14.7514 13.718 14.481 13.715C13.2541 13.7018 12.0272 13.7092 10.8003 13.7099C10.7306 13.7099 10.6608 13.7209 10.5932 13.7268C10.5726 14.1683 10.5528 14.5915 10.5322 15.0301C11.2808 15.0301 12.0405 15.0286 12.7994 15.0301C14.049 15.0338 14.9666 15.9484 14.974 17.1959C14.9755 17.4949 14.974 17.7932 14.974 18.1003H16.7343H16.7335ZM15.1261 12.8592C15.2407 12.8988 15.2899 12.9209 15.3406 12.9326C16.7284 13.2625 17.6144 14.3858 17.6137 15.8133C17.6137 16.5913 17.6137 17.37 17.6137 18.0819C17.9244 18.2898 18.2344 18.4323 18.4534 18.6623C18.6686 18.8886 18.7921 19.203 18.964 19.4925C19.3592 19.1486 19.4716 18.6704 19.3622 18.1693C18.9816 16.4267 18.5695 14.6914 18.1639 12.9539C18.1485 12.8885 18.0824 12.793 18.028 12.7835C17.1905 12.6424 16.4419 12.3008 15.7285 11.7483C15.5243 12.1238 15.3325 12.4786 15.1268 12.8577L15.1261 12.8592ZM21.6433 20.7627C21.636 20.8024 21.6308 20.8119 21.6323 20.8207C21.8608 22.1402 23.192 23.118 24.5114 22.9366C25.9624 22.7375 26.9873 21.4768 26.844 20.0655C26.7029 18.6748 25.4783 17.5926 24.1316 17.6727C24.0662 17.6764 23.9773 17.6999 23.9428 17.7469C23.6783 18.1025 23.4249 18.4654 23.1685 18.8261C23.2794 18.8158 23.3558 18.7725 23.4337 18.7328C24.2793 18.3119 25.3041 18.6329 25.7582 19.4601C26.2181 20.2969 25.9279 21.346 25.1043 21.828C24.2925 22.3026 23.1721 22.0829 22.7615 21.2432C22.5153 20.7407 22.2053 20.7186 21.7814 20.751C21.7366 20.7546 21.6918 20.7583 21.6426 20.762L21.6433 20.7627ZM8.00053 20.7627C8.08208 21.9463 9.3244 22.9748 10.6314 22.9513C11.8832 22.9285 13.1079 21.8632 13.1388 20.7517C12.9375 20.7517 12.7362 20.7649 12.5371 20.748C12.3424 20.7311 12.2579 20.8046 12.1786 20.986C11.8774 21.673 11.3264 22.0241 10.5836 22.0491C9.88569 22.0726 9.24359 21.637 8.95781 20.9831C8.92548 20.9082 8.89242 20.834 8.86156 20.7634H8.00053V20.7627ZM17.527 4.46706C17.2926 4.46706 17.0098 4.45604 16.7276 4.46926C16.2685 4.4913 15.8798 4.85129 15.8622 5.30678C15.8394 5.89966 15.8571 6.49401 15.8571 7.12802C16.2104 7.20002 16.5535 7.29994 16.9032 7.333C17.2977 7.37046 17.5512 7.17284 17.5916 6.78787C17.6217 6.49768 17.74 6.31034 17.9861 6.18324C18.0434 6.15385 18.0993 6.123 18.1566 6.09288C18.1191 6.08186 18.0809 6.0701 18.0434 6.05908C17.8767 5.54408 17.7092 5.02834 17.5277 4.46706H17.527ZM15.0952 18.9951C15.2216 19.4932 15.7109 19.8576 16.2699 19.8679C16.7636 19.8767 17.2573 19.8701 17.751 19.8657C17.8473 19.8649 17.9435 19.8451 18.0368 19.8348C18.0273 19.3764 17.7503 19.0171 17.3396 19.0024C16.5939 18.976 15.8468 18.9951 15.0952 18.9951ZM20.8175 11.5147C20.5986 10.5406 20.0439 10.4818 19.5767 10.6148C19.0485 10.7654 18.7193 11.3972 18.8846 11.943C19.5671 11.9732 20.21 11.8225 20.8175 11.5147ZM22.8864 9.85584C22.3251 10.0336 21.9864 10.5707 22.0143 11.1628C22.0341 11.5742 22.4088 12.2193 22.8864 12.2604V9.85584ZM23.4991 20.7502C23.704 21.1198 24.0853 21.2667 24.4674 21.1491C24.8854 21.0206 25.1418 20.6312 25.0911 20.2007C25.0448 19.804 24.7113 19.4763 24.3087 19.4344C23.9524 19.397 23.6144 19.5814 23.524 19.8701C23.7371 19.8701 23.9472 19.8664 24.1581 19.8708C24.46 19.8774 24.6503 20.0493 24.651 20.3087C24.6518 20.5666 24.46 20.7421 24.1603 20.7487C23.945 20.7539 23.7298 20.7495 23.4983 20.7495L23.4991 20.7502ZM6.19031 10.6331V11.4883H7.4701V10.6331H6.19031ZM11.2808 20.7759H9.84822C10.2516 21.3174 10.9473 21.3108 11.2808 20.7759Z" fill="#1680E4"/>
</svg>
